<svg width="1495" height="466" viewBox="0 0 1495 466" fill="none" xmlns="http://www.w3.org/2000/svg">
<g clip-path="url(#clip0_84_2144)">
<path d="M787.641 117.06C787.641 133.85 774.102 147.375 757.294 147.375C740.486 147.375 726.946 133.85 726.946 117.06C726.946 100.271 740.019 86.7458 757.294 86.7458C774.568 87.2122 787.641 100.737 787.641 117.06ZM662.516 178.155C662.516 180.954 662.516 185.617 662.516 185.617C662.516 185.617 648.043 166.962 617.228 166.962C566.338 166.962 526.652 205.671 526.652 259.305C526.652 312.471 565.871 351.647 617.228 351.647C648.509 351.647 662.516 332.526 662.516 332.526V340.454C662.516 344.185 665.317 346.983 669.052 346.983H706.87V171.626C706.87 171.626 672.321 171.626 669.052 171.626C665.317 171.626 662.516 174.891 662.516 178.155ZM662.516 290.552C655.513 300.812 641.506 309.673 624.698 309.673C594.818 309.673 571.94 291.018 571.94 259.305C571.94 227.591 594.818 208.936 624.698 208.936C641.039 208.936 655.98 218.264 662.516 228.057V290.552ZM734.883 171.626H779.704V346.983H734.883V171.626ZM1404.4 166.962C1435.21 166.962 1449.68 185.617 1449.68 185.617V87.2122H1494.51V346.983C1494.51 346.983 1459.96 346.983 1456.69 346.983C1452.95 346.983 1450.15 343.719 1450.15 340.454V332.526C1450.15 332.526 1435.68 351.647 1404.86 351.647C1353.97 351.647 1314.29 312.471 1314.29 259.305C1314.29 206.138 1353.97 166.962 1404.4 166.962ZM1411.87 309.207C1429.14 309.207 1442.68 300.346 1449.68 290.085V227.591C1442.68 218.264 1427.74 208.47 1411.87 208.47C1381.99 208.47 1359.11 227.125 1359.11 258.838C1359.11 290.552 1381.99 309.207 1411.87 309.207ZM1290.94 242.981V347.45H1246.12V248.112C1246.12 219.196 1236.78 207.537 1211.57 207.537C1198.03 207.537 1184.03 214.533 1175.16 224.793V346.983H1130.34V171.626H1165.82C1169.55 171.626 1172.35 174.891 1172.35 178.155V185.617C1185.43 172.092 1202.7 166.962 1219.98 166.962C1239.59 166.962 1255.93 172.559 1269 183.752C1284.87 196.81 1290.94 213.6 1290.94 242.981ZM1021.55 166.962C1052.37 166.962 1066.84 185.617 1066.84 185.617V87.2122H1111.66V346.983C1111.66 346.983 1077.11 346.983 1073.85 346.983C1070.11 346.983 1067.31 343.719 1067.31 340.454V332.526C1067.31 332.526 1052.84 351.647 1022.02 351.647C971.131 351.647 931.446 312.471 931.446 259.305C930.979 206.138 970.664 166.962 1021.55 166.962ZM1029.03 309.207C1046.3 309.207 1059.84 300.346 1066.84 290.085V227.591C1059.84 218.264 1044.9 208.47 1029.03 208.47C999.145 208.47 976.267 227.125 976.267 258.838C976.267 290.552 999.145 309.207 1029.03 309.207ZM892.691 166.962C906.23 166.962 913.233 169.294 913.233 169.294V210.802C913.233 210.802 875.883 198.209 852.538 224.793V347.45H807.717V171.626C807.717 171.626 842.267 171.626 845.535 171.626C849.27 171.626 852.071 174.891 852.071 178.155V185.617C860.475 175.823 878.684 166.962 892.691 166.962ZM427.206 331.126C424.871 325.53 422.537 319.467 420.203 314.337C416.467 305.942 412.732 298.014 409.464 290.552L408.997 290.085C376.782 220.129 342.233 149.24 305.816 79.2838L304.415 76.4855C300.68 69.4899 296.945 62.0279 293.21 54.5659C288.541 46.1711 283.872 37.31 276.402 28.9153C261.462 10.2603 239.985 0 217.107 0C193.763 0 172.753 10.2603 157.346 27.9825C150.343 36.3773 145.207 45.2384 140.538 53.6332C136.803 61.0952 133.068 68.5572 129.333 75.5528L127.932 78.351C91.9821 148.307 56.9657 219.196 24.7506 289.153L24.2837 290.085C21.0155 297.547 17.2805 305.476 13.5454 313.871C11.211 319.001 8.87653 324.597 6.5421 330.66C0.472589 347.916 -1.39495 364.239 0.939475 381.029C6.07521 416.007 29.4195 445.388 61.6346 458.447C73.7736 463.577 86.3795 465.909 99.4523 465.909C103.187 465.909 111.239 465.909 111.239 465.909L216.174 464.976L310.772 465.909C310.772 465.909 329.16 465.909 332.895 465.909C345.968 465.909 359.041 463.577 370.713 458.447C403.395 445.388 426.272 415.54 431.408 381.029C435.143 364.705 433.275 348.382 427.206 331.126ZM216.174 464.976C190.962 433.263 175.088 293.816 169.485 268.632C167.151 257.905 166.684 248.578 168.084 240.183C169.018 232.721 171.82 226.192 175.555 220.595C184.425 208.003 199.366 200.075 216.641 200.075C233.915 200.075 249.322 207.537 257.726 220.595C261.462 226.192 264.263 232.721 265.197 240.183C266.597 248.578 266.13 258.372 263.796 268.632C258.193 293.35 241.385 432.796 216.174 464.976ZM402.928 377.298C399.66 401.549 383.319 422.536 360.441 431.863C349.236 436.527 337.097 437.926 324.958 436.527C313.286 435.128 301.614 431.397 289.475 424.401C272.667 415.074 263.544 402.482 243.935 381.029C274.749 343.252 285.74 306.875 292.743 276.094C296.011 261.637 296.478 248.578 295.077 236.452C293.21 224.793 289.008 214.066 282.471 204.739C267.998 183.752 243.72 171.626 216.641 171.626C189.561 171.626 165.283 184.218 150.81 204.739C144.273 214.066 140.071 224.793 138.204 236.452C136.336 248.578 136.803 262.103 140.538 276.094C147.541 306.875 157.991 341.387 188.339 379.163C169.196 400.616 160.614 415.54 143.806 424.868C131.667 431.863 119.995 435.594 108.323 436.994C95.7172 438.393 83.5782 436.527 72.8398 432.33C49.9624 423.002 33.6214 402.015 30.3533 377.764C28.9526 366.105 29.8864 354.445 34.5552 341.387C35.9559 336.723 38.2903 332.059 40.6247 326.463C43.8929 319.001 47.628 311.072 51.3631 303.144L51.83 302.211C84.0451 232.721 118.595 161.832 154.545 92.8087L155.945 90.0104C159.681 83.0148 163.416 75.5528 167.151 68.5572C170.886 61.0952 175.088 54.0995 180.223 48.0366C190.028 36.8436 203.101 30.7808 217.574 30.7808C232.048 30.7808 245.121 36.8436 254.925 48.0366C260.061 54.0995 264.263 61.0952 267.998 68.5572C271.733 75.5528 275.468 83.0148 279.203 90.0104L280.604 92.8087C316.087 162.299 350.637 233.188 382.852 302.678V303.144C386.587 310.606 389.855 319.001 393.59 326.463C395.924 332.059 398.259 336.723 399.66 341.387C403.395 353.512 404.795 365.172 402.928 377.298Z" fill="#FF5A5F"/>
<path d="M217.898 120.717L255.482 185.815H180.314L217.898 120.717Z" fill="#FF5A5F"/>
</g>
<defs>
<clipPath id="clip0_84_2144">
<rect width="1494.5" height="465.909" fill="white"/>
</clipPath>
</defs>
</svg>
