<svg width="117" height="44" viewBox="0 0 117 44" fill="none" xmlns="http://www.w3.org/2000/svg">
<path d="M44.9331 28.2425C44.9331 30.8652 47.1775 32.3783 49.5984 32.3783C51.2124 32.3783 52.8263 31.7226 53.6585 30.26L53.7594 32H56.4073V23.9554C56.4073 20.6266 54.0872 18.4327 50.8593 18.4327C48.514 18.4327 46.0679 19.6936 45.4122 22.0641L48.0853 22.6693C48.5393 21.5345 49.5984 20.8536 50.8089 20.8536C52.5994 20.8536 53.5324 22.1649 53.5324 23.8293V24.6615C52.4985 24.2328 51.4141 24.0311 50.3045 24.0311C47.6566 24.0311 44.9331 25.292 44.9331 28.2425ZM47.8584 28.1164C47.8584 26.5781 49.4975 26.0737 50.7584 26.0737C51.2376 26.0737 51.7167 26.1242 52.1959 26.2251C52.6498 26.3511 53.1037 26.5025 53.5324 26.679V26.9816C53.5324 28.8225 52.0446 30.0582 50.2793 30.0582C49.0941 30.0582 47.8584 29.4278 47.8584 28.1164ZM61.6706 32V18.8109H58.7705V32H61.6706ZM58.6949 16.0117C58.8462 16.2891 59.0479 16.4909 59.3253 16.6422C59.6027 16.8187 59.8801 16.8944 60.2079 16.8944C60.5358 16.8944 60.8132 16.8187 61.0906 16.6422C61.368 16.4909 61.5697 16.2891 61.7462 16.0117C61.8976 15.7343 61.9732 15.4569 61.9732 15.1291C61.9732 14.8013 61.8976 14.5239 61.7462 14.2465C61.5697 13.9691 61.368 13.7673 61.0906 13.5908C60.8132 13.4395 60.5358 13.3638 60.2079 13.3638C59.8801 13.3638 59.6027 13.4395 59.3253 13.5908C59.0479 13.7673 58.8462 13.9691 58.6949 14.2465C58.5183 14.5239 58.4427 14.8013 58.4427 15.1291C58.4427 15.4569 58.5183 15.7343 58.6949 16.0117ZM64.0476 18.8109V32H66.9477V25.3172C66.9477 23.2493 67.906 21.5093 70.1756 21.5093C70.5791 21.5093 70.9826 21.5345 71.3608 21.6858L71.6887 18.8614C71.26 18.6848 70.7808 18.6344 70.3269 18.6344C68.7129 18.6344 67.4773 19.517 66.8216 20.9797L66.6955 18.8109H64.0476ZM78.2472 32.3783C80.1133 32.3783 81.7525 31.4704 82.7108 29.8817L82.8368 32H85.4848V13.2377H82.5847V20.551C81.6012 19.164 80.0881 18.4327 78.3985 18.4327C74.5149 18.4327 72.0939 21.8623 72.0939 25.4685C72.0939 29.0495 74.5149 32.3783 78.2472 32.3783ZM75.0697 25.4181C75.0697 23.1484 76.4567 21.0553 78.8524 21.0553C81.3238 21.0553 82.6351 23.1737 82.6351 25.4181C82.6351 27.6625 81.2229 29.7556 78.8524 29.7556C76.4567 29.7556 75.0697 27.6121 75.0697 25.4181ZM87.8511 18.8109V32H90.7512V24.3337C90.7512 22.4676 92.0373 21.0553 93.9035 21.0553C95.9209 21.0553 96.627 22.6945 96.627 24.485V32H99.5271V24.1572C99.5271 21.0553 97.9131 18.4327 94.6348 18.4327C92.9956 18.4327 91.4069 19.164 90.5999 20.6266L90.499 18.8109H87.8511ZM107.469 32.3783C109.335 32.3783 110.974 31.4704 111.932 29.8817L112.058 32H114.706V13.2377H111.806V20.551C110.823 19.164 109.31 18.4327 107.62 18.4327C103.736 18.4327 101.315 21.8623 101.315 25.4685C101.315 29.0495 103.736 32.3783 107.469 32.3783ZM104.291 25.4181C104.291 23.1484 105.678 21.0553 108.074 21.0553C110.545 21.0553 111.857 23.1737 111.857 25.4181C111.857 27.6625 110.444 29.7556 108.074 29.7556C105.678 29.7556 104.291 27.6121 104.291 25.4181Z" fill="#FF5A5F"/>
<path d="M22.4085 21.3418L21.9996 21.7452L21.589 21.3418C20.8259 20.5885 19.7967 20.166 18.7244 20.166C17.6521 20.166 16.6229 20.5885 15.8598 21.3418C15.4811 21.7062 15.1798 22.1432 14.974 22.6268C14.7682 23.1103 14.6621 23.6305 14.6621 24.156C14.6621 24.6815 14.7682 25.2017 14.974 25.6852C15.1798 26.1688 15.4811 26.6058 15.8598 26.9702L21.9996 33L28.1395 26.9702C28.5182 26.6058 28.8195 26.1688 29.0253 25.6852C29.2311 25.2017 29.3372 24.6815 29.3372 24.156C29.3372 23.6305 29.2311 23.1103 29.0253 22.6268C28.8195 22.1432 28.5182 21.7062 28.1395 21.3418C27.3761 20.5883 26.3466 20.1659 25.274 20.1659C24.2013 20.1659 23.1719 20.5883 22.4085 21.3418Z" fill="#FF5A5F"/>
<path d="M39.7961 20.7038L23.2961 4.20383C23.126 4.03343 22.924 3.89824 22.7015 3.806C22.4791 3.71377 22.2407 3.66629 21.9999 3.66629C21.7592 3.66629 21.5207 3.71377 21.2983 3.806C21.0759 3.89824 20.8739 4.03343 20.7038 4.20383L4.20377 20.7038C3.94745 20.9602 3.77291 21.2869 3.7022 21.6424C3.63149 21.998 3.6678 22.3666 3.80653 22.7015C3.94525 23.0365 4.18018 23.3228 4.48159 23.5242C4.78301 23.7257 5.13739 23.8332 5.49993 23.8333H7.33327V36.6667C7.33327 38.6888 8.97777 40.3333 10.9999 40.3333H32.9999C35.0221 40.3333 36.6666 38.6888 36.6666 36.6667V23.8333H38.4999C38.8625 23.8332 39.2169 23.7257 39.5183 23.5242C39.8197 23.3228 40.0546 23.0365 40.1933 22.7015C40.3321 22.3666 40.3684 21.998 40.2977 21.6424C40.227 21.2869 40.0524 20.9602 39.7961 20.7038ZM33.0018 36.6667H10.9999V19.0942L21.9999 8.09416L32.9999 19.0942V27.5L33.0018 36.6667Z" fill="#FF5A5F"/>
</svg>
