<?xml version="1.0" standalone="no"?>
<!DOCTYPE svg PUBLIC "-//W3C//DTD SVG 20010904//EN"
 "http://www.w3.org/TR/2001/REC-SVG-20010904/DTD/svg10.dtd">
<svg version="1.0" xmlns="http://www.w3.org/2000/svg"
 width="700.000000pt" height="700.000000pt" viewBox="0 0 700.000000 700.000000"
 preserveAspectRatio="xMidYMid meet">
<metadata>
Created by potrace 1.14, written by Peter Selinger 2001-2017
</metadata>
<g transform="translate(0.000000,700.000000) scale(0.100000,-0.100000)"
fill="#000000" stroke="none">
<path d="M3430 6406 c-25 -7 -58 -19 -75 -28 -16 -9 -634 -620 -1373 -1359
-1487 -1486 -1396 -1387 -1395 -1519 0 -88 31 -157 95 -215 73 -66 115 -76
315 -76 l170 1 0 -1058 c0 -1171 -3 -1114 66 -1252 37 -75 147 -192 218 -234
25 -14 79 -38 120 -53 l74 -27 1850 0 1850 -1 70 22 c197 63 350 224 401 423
15 59 17 171 18 1122 l0 1057 173 0 c150 1 179 4 225 22 109 42 181 149 181
268 0 133 93 32 -1393 1518 -1110 1111 -1354 1350 -1395 1369 -62 29 -136 36
-195 20z m948 -1569 l872 -873 -2 -1399 -3 -1399 -1735 0 c-954 -1 -1741 0
-1747 2 -10 3 -13 292 -13 1400 l0 1395 873 873 c479 480 874 873 877 873 3 1
398 -392 878 -872z"/>
<path d="M2875 3784 c-158 -33 -257 -86 -363 -193 -67 -69 -117 -149 -144
-229 -28 -84 -32 -117 -31 -222 1 -103 26 -197 78 -295 26 -47 221 -245 894
-908 l191 -188 64 63 c968 950 956 938 998 1001 71 104 107 230 102 357 -2 47
-5 96 -8 109 -46 210 -193 383 -395 465 -93 38 -169 49 -279 43 -173 -9 -302
-70 -444 -209 l-38 -38 -38 38 c-110 110 -225 174 -360 201 -51 11 -186 13
-227 5z"/>
</g>
</svg>
